<svg width="1920" height="1614" viewBox="0 0 1920 1614" fill="none" xmlns="http://www.w3.org/2000/svg">
<g clip-path="url(#clip0_17_1025)">
<path d="M1920 0H0V1614H1920V0Z" fill="#E3E7FE"/>
<path d="M1403 1465C1516.77 1465 1609 1372.77 1609 1259C1609 1145.23 1516.77 1053 1403 1053C1289.23 1053 1197 1145.23 1197 1259C1197 1372.77 1289.23 1465 1403 1465Z" fill="#516CF7"/>
<path d="M852 1527C859.18 1527 865 1521.18 865 1514C865 1506.82 859.18 1501 852 1501C844.82 1501 839 1506.82 839 1514C839 1521.18 844.82 1527 852 1527Z" fill="#516CF7"/>
<path d="M251 1316C299.601 1316 339 1276.6 339 1228C339 1179.4 299.601 1140 251 1140C202.399 1140 163 1179.4 163 1228C163 1276.6 202.399 1316 251 1316Z" fill="#516CF7"/>
<path d="M1827 1603C1891.07 1603 1943 1551.07 1943 1487C1943 1422.93 1891.07 1371 1827 1371C1762.93 1371 1711 1422.93 1711 1487C1711 1551.07 1762.93 1603 1827 1603Z" fill="#516CF7"/>
<path d="M295 898C387.232 898 462 823.232 462 731C462 638.768 387.232 564 295 564C202.768 564 128 638.768 128 731C128 823.232 202.768 898 295 898Z" fill="#516CF7"/>
<path d="M1526 731C1591.17 731 1644 678.17 1644 613C1644 547.83 1591.17 495 1526 495C1460.83 495 1408 547.83 1408 613C1408 678.17 1460.83 731 1526 731Z" fill="#516CF7"/>
<path d="M768 1211C855.261 1211 926 1140.26 926 1053C926 965.739 855.261 895 768 895C680.739 895 610 965.739 610 1053C610 1140.26 680.739 1211 768 1211Z" fill="#516CF7"/>
<path d="M610 542C628.225 542 643 527.225 643 509C643 490.775 628.225 476 610 476C591.775 476 577 490.775 577 509C577 527.225 591.775 542 610 542Z" fill="#516CF7"/>
<path d="M1692 103C1725.14 103 1752 76.1371 1752 43C1752 9.86292 1725.14 -17 1692 -17C1658.86 -17 1632 9.86292 1632 43C1632 76.1371 1658.86 103 1692 103Z" fill="#516CF7"/>
<path d="M1145 434C1188.08 434 1223 399.078 1223 356C1223 312.922 1188.08 278 1145 278C1101.92 278 1067 312.922 1067 356C1067 399.078 1101.92 434 1145 434Z" fill="#516CF7"/>
<path d="M489 300C587.859 300 668 219.859 668 121C668 22.141 587.859 -58 489 -58C390.141 -58 310 22.141 310 121C310 219.859 390.141 300 489 300Z" fill="#516CF7"/>
<path d="M48 201C62.3594 201 74 189.359 74 175C74 160.641 62.3594 149 48 149C33.6406 149 22 160.641 22 175C22 189.359 33.6406 201 48 201Z" fill="#516CF7"/>
<path d="M1827 1080C1913.16 1080 1983 1010.16 1983 924C1983 837.844 1913.16 768 1827 768C1740.84 768 1671 837.844 1671 924C1671 1010.16 1740.84 1080 1827 1080Z" fill="#516CF7"/>
<path d="M444 1768C540.098 1768 618 1690.1 618 1594C618 1497.9 540.098 1420 444 1420C347.902 1420 270 1497.9 270 1594C270 1690.1 347.902 1768 444 1768Z" fill="#516CF7"/>
<path d="M-15 1883C83.3067 1883 163 1803.31 163 1705C163 1606.69 83.3067 1527 -15 1527C-113.307 1527 -193 1606.69 -193 1705C-193 1803.31 -113.307 1883 -15 1883Z" fill="#516CF7"/>
<path d="M1910 509C1955.84 509 1993 471.84 1993 426C1993 380.16 1955.84 343 1910 343C1864.16 343 1827 380.16 1827 426C1827 471.84 1864.16 509 1910 509Z" fill="#516CF7"/>
</g>
<defs>
<clipPath id="clip0_17_1025">
<rect width="1920" height="1614" fill="white"/>
</clipPath>
</defs>
</svg>
