<svg width="30" height="30" viewBox="0 0 30 30" fill="none" xmlns="http://www.w3.org/2000/svg">
<path d="M25.0669 7.59372C25.0263 7.52997 24.98 7.47997 24.9194 7.43435C24.6975 7.26747 21.3294 5.00372 18.7538 5.00372C18.5925 5.00372 18.2381 5.69122 18.1188 6.2456C16.8725 6.24685 13.1213 6.24372 11.8731 6.24935C11.7256 5.7256 11.3456 5.0056 11.2431 5.0056C8.66688 5.0056 5.31375 7.25935 5.08 7.43497C5.01938 7.4806 4.97375 7.5306 4.9325 7.59435C4.49 8.28622 1.77688 12.8368 1.25 21.1143C1.24438 21.2031 1.275 21.295 1.33438 21.3612C4.205 24.5756 8.32375 24.9556 9.2025 25C9.30688 25.005 9.41188 24.9631 9.46938 24.8756L10.1563 23.835L8.1275 22.8725V21.8668C12.0831 23.6275 17.725 23.8068 21.8731 21.8775L21.89 22.87L19.8869 23.9012L20.5294 24.8756C20.5869 24.9631 20.6919 25.0056 20.7963 25C21.6756 24.955 25.7938 24.5756 28.6638 21.3606C28.7231 21.2943 28.7538 21.2025 28.7481 21.1137C28.2225 12.8362 25.5094 8.2856 25.0669 7.59372Z" fill="url(#paint0_radial_17_1441)"/>
<path opacity="0.05" d="M19.0625 19.375C20.6158 19.375 21.875 17.9759 21.875 16.25C21.875 14.5241 20.6158 13.125 19.0625 13.125C17.5092 13.125 16.25 14.5241 16.25 16.25C16.25 17.9759 17.5092 19.375 19.0625 19.375Z" fill="black"/>
<path opacity="0.05" d="M19.0625 19.0625C20.4432 19.0625 21.5625 17.8033 21.5625 16.25C21.5625 14.6967 20.4432 13.4375 19.0625 13.4375C17.6818 13.4375 16.5625 14.6967 16.5625 16.25C16.5625 17.8033 17.6818 19.0625 19.0625 19.0625Z" fill="black"/>
<path d="M19.0625 18.75C20.2706 18.75 21.25 17.6307 21.25 16.25C21.25 14.8693 20.2706 13.75 19.0625 13.75C17.8544 13.75 16.875 14.8693 16.875 16.25C16.875 17.6307 17.8544 18.75 19.0625 18.75Z" fill="white"/>
<path opacity="0.05" d="M10.9375 19.375C12.4908 19.375 13.75 17.9759 13.75 16.25C13.75 14.5241 12.4908 13.125 10.9375 13.125C9.3842 13.125 8.125 14.5241 8.125 16.25C8.125 17.9759 9.3842 19.375 10.9375 19.375Z" fill="black"/>
<path opacity="0.05" d="M10.9375 19.0625C12.3182 19.0625 13.4375 17.8033 13.4375 16.25C13.4375 14.6967 12.3182 13.4375 10.9375 13.4375C9.55679 13.4375 8.4375 14.6967 8.4375 16.25C8.4375 17.8033 9.55679 19.0625 10.9375 19.0625Z" fill="black"/>
<path d="M10.9375 18.75C12.1456 18.75 13.125 17.6307 13.125 16.25C13.125 14.8693 12.1456 13.75 10.9375 13.75C9.72938 13.75 8.75 14.8693 8.75 16.25C8.75 17.6307 9.72938 18.75 10.9375 18.75Z" fill="white"/>
<defs>
<radialGradient id="paint0_radial_17_1441" cx="0" cy="0" r="1" gradientUnits="userSpaceOnUse" gradientTransform="translate(15 6.24935) scale(20.1581)">
<stop stop-color="#8C9EFF"/>
<stop offset="0.368" stop-color="#889AF8"/>
<stop offset="0.889" stop-color="#7E8FE6"/>
<stop offset="1" stop-color="#7B8CE1"/>
</radialGradient>
</defs>
</svg>
