<svg width="30" height="30" viewBox="0 0 30 30" fill="none" xmlns="http://www.w3.org/2000/svg">
<path d="M15 2.5C8.09625 2.5 2.5 8.09625 2.5 15C2.5 20.5544 6.12562 25.2569 11.1375 26.885H18.8625C23.8744 25.2569 27.5 20.5544 27.5 15C27.5 8.09625 21.9037 2.5 15 2.5Z" fill="url(#paint0_linear_17_1436)"/>
<path opacity="0.05" d="M18.7562 26.2475L18.75 22.6237C18.75 22.0369 18.6125 21.4637 18.3487 20.9444C21.8744 20.2362 23.59 18.1519 23.59 14.5837C23.59 13.1744 23.1744 11.93 22.355 10.8837C22.4175 10.6856 22.4637 10.4806 22.4925 10.2706C22.61 9.415 22.4781 8.85562 22.3719 8.40562L22.355 8.33312C22.2387 7.83562 22.0994 7.48062 22.0937 7.46562L22.0244 7.28937L21.955 7.11312L21.7662 7.09312L21.5769 7.07312C21.5769 7.07312 21.4525 7.06 21.2637 7.06C21.0019 7.06 20.6137 7.08625 20.2469 7.21062L20.1244 7.25187C19.6619 7.4075 19.225 7.555 18.6137 7.92C18.435 8.02687 18.2394 8.14875 18.03 8.285C17.0837 8.05062 16.0656 7.93125 15 7.93125C13.9237 7.93125 12.8969 8.05125 11.9444 8.28812C11.7325 8.15062 11.5356 8.0275 11.3556 7.92C10.7444 7.555 10.3075 7.40812 9.845 7.25187L9.7225 7.21062C9.35687 7.08625 8.96812 7.06 8.70625 7.06C8.5175 7.06 8.39312 7.07312 8.39312 7.07312L8.20437 7.09312L8.01687 7.1125L7.94687 7.28812L7.87625 7.465C7.87 7.48125 7.73062 7.83625 7.61437 8.33437L7.5975 8.40625C7.49125 8.85562 7.35937 9.41562 7.47687 10.2706C7.50687 10.4869 7.555 10.6987 7.62062 10.9025C6.8175 11.9437 6.41062 13.1812 6.41062 14.5837C6.41062 18.1431 8.12812 20.2262 11.6587 20.94C11.5375 21.1825 11.4431 21.4387 11.3762 21.705C11.2531 21.7469 11.14 21.775 11.04 21.7906C10.8912 21.8131 10.7356 21.8244 10.5781 21.8244C10.1494 21.8244 9.8125 21.7406 9.68125 21.6625C9.48562 21.5462 9.13625 21.2081 8.7975 20.7137C8.50812 20.2919 8.05687 19.74 7.5525 19.5094C7.11625 19.31 6.65437 19.1956 6.28437 19.1956C6.19812 19.1956 6.11875 19.2019 6.04937 19.2131C5.72625 19.2644 5.45625 19.4419 5.30937 19.7006C5.1825 19.9237 5.1625 20.1837 5.25437 20.4137C5.39125 20.7562 5.78625 21.0294 6.09375 21.1981C6.245 21.2812 6.57187 21.585 6.7625 21.8912C6.90562 22.1212 6.97187 22.285 7.06375 22.5112C7.11812 22.6456 7.17812 22.7919 7.25937 22.9687C7.55312 23.6075 8.47 24.1712 8.57375 24.2331C9.0775 24.535 9.92437 24.6319 10.5469 24.66L10.6237 24.6619H10.6244C10.7744 24.6619 10.9806 24.6475 11.2519 24.6175V26.2506C11.2531 26.5812 10.9162 26.6562 10.4706 26.6494L10.8125 26.7644C12.1219 27.2325 13.5281 27.5 15 27.5C16.4719 27.5 17.8781 27.2325 19.1894 26.765L19.6287 26.6012C19.1844 26.5862 18.76 26.5137 18.7562 26.2475Z" fill="black"/>
<path opacity="0.07" d="M19.2381 26.7481C18.9844 26.7775 18.4375 26.68 18.4375 26.2512V22.6237C18.4375 21.94 18.2325 21.2794 17.8525 20.7162C21.5494 20.1181 23.2769 18.1581 23.2769 14.5837C23.2769 13.1856 22.8481 11.9625 22.0025 10.945C22.0881 10.7169 22.1481 10.4762 22.1825 10.2281C22.2919 9.43062 22.1725 8.92437 22.0675 8.4775L22.0506 8.405C21.9394 7.92937 21.8081 7.59437 21.8025 7.58062L21.7331 7.40437L21.5437 7.38437C21.5437 7.38437 21.4325 7.3725 21.2631 7.3725C21.025 7.3725 20.6731 7.39562 20.3469 7.50687L20.2244 7.54812C19.7781 7.69875 19.3562 7.84062 18.7737 8.18812C18.5662 8.31187 18.335 8.4575 18.0856 8.62187C17.1275 8.37125 16.0906 8.24375 15 8.24375C13.8987 8.24375 12.8531 8.37187 11.8881 8.625C11.6362 8.45937 11.4037 8.31312 11.195 8.18812C10.6125 7.84062 10.1906 7.69812 9.74437 7.54812L9.62187 7.50687C9.29624 7.39625 8.94374 7.3725 8.70562 7.3725C8.53624 7.3725 8.42499 7.38437 8.42499 7.38437L8.23624 7.40437L8.16562 7.58125C8.15999 7.595 8.02874 7.93 7.91749 8.40562L7.90062 8.47812C7.79499 8.925 7.67562 9.43062 7.78562 10.2281C7.82062 10.4825 7.88312 10.7287 7.97187 10.9619C7.14249 11.9744 6.72249 13.1912 6.72249 14.5837C6.72249 18.1481 8.45124 20.1075 12.1512 20.7125C11.9044 21.0812 11.7319 21.4969 11.6431 21.94C11.4369 22.0212 11.25 22.075 11.0862 22.1C10.9219 22.125 10.7506 22.1375 10.5775 22.1375C10.1462 22.1375 9.73187 22.0569 9.52124 21.9319C9.24624 21.7687 8.86062 21.3606 8.53874 20.8912C8.31999 20.5725 7.88437 20.0056 7.42124 19.7944C7.02437 19.6131 6.60999 19.5087 6.28312 19.5087C6.21437 19.5087 6.15187 19.5137 6.09687 19.5225C5.86812 19.5587 5.67937 19.68 5.57937 19.8562C5.49937 19.9962 5.48624 20.1581 5.54249 20.2987C5.65437 20.5787 6.06874 20.83 6.24187 20.925C6.45124 21.04 6.81624 21.39 7.02562 21.7275C7.18249 21.98 7.25687 22.1631 7.35124 22.3944C7.40437 22.525 7.46249 22.6675 7.54124 22.8394C7.74812 23.2887 8.38687 23.7594 8.73187 23.9662C9.20312 24.2487 10.0781 24.3275 10.5581 24.3487L10.6275 24.35C10.8144 24.35 11.1275 24.3219 11.5619 24.2656V26.2512C11.5619 26.7381 10.9425 26.7575 10.7906 26.7575C10.7712 26.7575 11.105 26.8725 11.105 26.8725C12.3319 27.275 13.6387 27.5 15 27.5C16.3612 27.5 17.6681 27.275 18.8944 26.8731C18.8944 26.8731 19.2575 26.7456 19.2381 26.7481Z" fill="black"/>
<path d="M22.965 14.5838C22.965 13.14 22.4762 11.9425 21.6419 11.0038C21.7325 10.8006 21.8269 10.5281 21.8737 10.1856C21.9812 9.40439 21.8544 8.93564 21.7469 8.47689C21.6394 8.01814 21.5125 7.69564 21.5125 7.69564C21.5125 7.69564 20.9362 7.63689 20.4481 7.80314C19.96 7.96939 19.54 8.09626 18.9344 8.45751C18.6512 8.62626 18.3662 8.81126 18.1406 8.96126C17.1762 8.69376 16.1156 8.55626 15 8.55626C13.8744 8.55626 12.8044 8.69439 11.8331 8.96376C11.6069 8.81314 11.32 8.62689 11.035 8.45689C10.4294 8.09564 10.0094 7.96876 9.52124 7.80251C9.03312 7.63626 8.45687 7.69501 8.45687 7.69501C8.45687 7.69501 8.32999 8.01751 8.22249 8.47626C8.11499 8.93501 7.98812 9.40376 8.09562 10.185C8.14374 10.5363 8.24124 10.8138 8.33437 11.0181C7.51562 11.9513 7.03562 13.1413 7.03562 14.5831C7.03562 18.3225 9.05562 20.0294 12.7362 20.48C12.3069 20.9338 12.0187 21.515 11.9219 22.1619C11.68 22.2681 11.4012 22.3681 11.1331 22.4081C10.4431 22.5125 9.71374 22.4081 9.36249 22.2C9.01124 21.9919 8.59437 21.5231 8.28187 21.0669C8.01812 20.6819 7.63749 20.235 7.29249 20.0775C6.83687 19.8694 6.39374 19.7913 6.14687 19.83C5.89937 19.8694 5.78249 20.0513 5.83437 20.1819C5.88624 20.3119 6.13374 20.5075 6.39437 20.6506C6.65499 20.7938 7.05874 21.1844 7.29312 21.5619C7.55437 21.9831 7.60562 22.2263 7.82687 22.7075C7.98249 23.0463 8.51499 23.4694 8.89437 23.6969C9.21999 23.8925 9.87062 24.0038 10.5744 24.0356C10.8175 24.0469 11.3919 23.9756 11.8762 23.9069V26.2506C11.8762 26.65 11.5106 26.9538 11.1319 26.8838C12.3475 27.2925 13.6456 27.5 15 27.5C16.3537 27.5 17.6519 27.2925 18.8687 26.885C18.4906 26.9544 18.125 26.6506 18.125 26.2513V22.6238C18.125 21.7931 17.7956 21.0425 17.2669 20.4831C20.9206 20.0444 22.965 18.3781 22.965 14.5838ZM7.02437 20.4544C6.92812 20.405 6.87624 20.3138 6.90874 20.2494C6.94124 20.185 7.04624 20.1731 7.14249 20.2225C7.23874 20.2719 7.29062 20.3631 7.25812 20.4275C7.22562 20.4919 7.12062 20.5038 7.02437 20.4544ZM7.78187 20.9263C7.73124 20.9813 7.62249 20.9638 7.53874 20.8875C7.45499 20.8113 7.42812 20.7044 7.47874 20.6494C7.52937 20.5944 7.63812 20.6119 7.72187 20.6881C7.80562 20.7644 7.83249 20.8713 7.78187 20.9263ZM8.25312 21.7075C8.18937 21.7525 8.08124 21.7106 8.01187 21.6138C7.94249 21.5169 7.93812 21.4013 8.00187 21.3563C8.06562 21.3113 8.17374 21.3531 8.24312 21.45C8.31187 21.5469 8.31687 21.6625 8.25312 21.7075ZM8.92999 22.2956C8.88687 22.3656 8.76437 22.3688 8.65687 22.3031C8.54937 22.2375 8.49687 22.1275 8.53999 22.0575C8.58312 21.9875 8.70562 21.9844 8.81312 22.05C8.92062 22.1156 8.97312 22.2256 8.92999 22.2956ZM9.56999 22.8713C9.43687 22.855 9.33812 22.7719 9.34937 22.6856C9.35999 22.5994 9.47687 22.5431 9.60937 22.5594C9.74249 22.5756 9.84124 22.6588 9.82999 22.745C9.81937 22.8306 9.70312 22.8875 9.56999 22.8713ZM10.6019 23.0206C10.46 23.0125 10.3494 22.9313 10.355 22.84C10.3606 22.7488 10.48 22.6806 10.6219 22.6888C10.7637 22.6969 10.8744 22.7781 10.8687 22.8694C10.8631 22.9613 10.7437 23.0288 10.6019 23.0206ZM11.5756 22.9231C11.4244 22.9231 11.3019 22.8444 11.3019 22.7475C11.3019 22.6506 11.4244 22.5719 11.5756 22.5719C11.7269 22.5719 11.8494 22.6506 11.8494 22.7475C11.8494 22.8444 11.7262 22.9231 11.5756 22.9231Z" fill="white"/>
<defs>
<linearGradient id="paint0_linear_17_1436" x1="2.5" y1="14.6925" x2="27.5" y2="14.6925" gradientUnits="userSpaceOnUse">
<stop stop-color="#4C4C4C"/>
<stop offset="1" stop-color="#343434"/>
</linearGradient>
</defs>
</svg>
