<svg width="30" height="30" viewBox="0 0 30 30" fill="none" xmlns="http://www.w3.org/2000/svg">
<path d="M26.5531 25H3.44687C2.57875 25 1.875 24.2962 1.875 23.4281V6.57188C1.875 5.70375 2.57875 5 3.44687 5H26.5525C27.4213 5 28.125 5.70375 28.125 6.57188V23.4275C28.125 24.2962 27.4213 25 26.5531 25Z" fill="url(#paint0_linear_17_1424)"/>
<path d="M26.5531 25H5L28.125 6.875V23.4281C28.125 24.2962 27.4213 25 26.5531 25Z" fill="url(#paint1_linear_17_1424)"/>
<path d="M3.44687 5H5V25H3.44687C2.57875 25 1.875 24.2962 1.875 23.4281V6.57188C1.875 5.70375 2.57875 5 3.44687 5ZM26.5531 5H25V25H26.5531C27.4213 25 28.125 24.2962 28.125 23.4281V6.57188C28.125 5.70375 27.4213 5 26.5531 5Z" fill="url(#paint2_linear_17_1424)"/>
<path d="M26.5531 25H19.0719L1.875 7.17812V6.5725C1.875 5.70375 2.57875 5 3.44687 5H26.5525C27.4213 5 28.125 5.70375 28.125 6.57188V23.4275C28.125 24.2962 27.4213 25 26.5531 25Z" fill="url(#paint3_linear_17_1424)"/>
<path d="M27.3887 8.18812L15 17.1619L2.61125 8.18812C2.14875 7.85312 1.875 7.31688 1.875 6.74563V6.57188C1.875 5.70375 2.57875 5 3.44687 5H26.5525C27.4213 5 28.125 5.70375 28.125 6.57188V6.74563C28.125 7.31688 27.8512 7.85312 27.3887 8.18812Z" fill="url(#paint4_linear_17_1424)"/>
<path d="M26.5531 5H26.3656L15 13.2325L3.63438 5H3.44687C2.57875 5 1.875 5.70375 1.875 6.57188V6.74563C1.875 7.31688 2.14875 7.85312 2.61125 8.18812L15 17.1619L27.3887 8.18812C27.8512 7.85312 28.125 7.31688 28.125 6.74563V6.57188C28.125 5.70375 27.4213 5 26.5531 5Z" fill="url(#paint5_linear_17_1424)"/>
<defs>
<linearGradient id="paint0_linear_17_1424" x1="9.42" y1="8.515" x2="15.0694" y2="15.0806" gradientUnits="userSpaceOnUse">
<stop stop-color="#E3E3E3"/>
<stop offset="1" stop-color="#E2E2E2"/>
</linearGradient>
<linearGradient id="paint1_linear_17_1424" x1="16.5331" y1="15.9006" x2="22.6062" y2="23.5269" gradientUnits="userSpaceOnUse">
<stop stop-color="#F5F5F5"/>
<stop offset="0.03" stop-color="#EEEEEE"/>
<stop offset="1" stop-color="#EEEEEE"/>
</linearGradient>
<linearGradient id="paint2_linear_17_1424" x1="1.875" y1="15" x2="28.125" y2="15" gradientUnits="userSpaceOnUse">
<stop stop-color="#D74A39"/>
<stop offset="1" stop-color="#C73D28"/>
</linearGradient>
<linearGradient id="paint3_linear_17_1424" x1="15" y1="5" x2="15" y2="23.8631" gradientUnits="userSpaceOnUse">
<stop stop-opacity="0.15"/>
<stop offset="1" stop-opacity="0.03"/>
</linearGradient>
<linearGradient id="paint4_linear_17_1424" x1="1.875" y1="11.0812" x2="28.125" y2="11.0812" gradientUnits="userSpaceOnUse">
<stop stop-color="#F5F5F5"/>
<stop offset="1" stop-color="#F5F5F5"/>
</linearGradient>
<linearGradient id="paint5_linear_17_1424" x1="15" y1="5.27875" x2="15" y2="17.3819" gradientUnits="userSpaceOnUse">
<stop stop-color="#E05141"/>
<stop offset="1" stop-color="#DE4735"/>
</linearGradient>
</defs>
</svg>
