<svg width="40" height="40" viewBox="0 0 40 40" fill="none" xmlns="http://www.w3.org/2000/svg">
<rect width="40" height="40" rx="8" fill="white"/>
<g clip-path="url(#clip0_52_3)">
<path fill-rule="evenodd" clip-rule="evenodd" d="M16.3822 28.1958L17.1164 29.5578L22.6637 27.0504L21.9306 25.6883L16.3853 28.1958H16.3822ZM17.5986 24.5863L21.4504 26.3288L22.1846 24.9668L18.3328 23.2242L17.5986 24.5863Z" fill="#BE1622"/>
<path fill-rule="evenodd" clip-rule="evenodd" d="M16.011 29.6633L23.7084 31.7167L24.1711 30.2605L16.4758 28.2042L16.011 29.6633Z" fill="#BE1622"/>
<path fill-rule="evenodd" clip-rule="evenodd" d="M19.9614 13.8425C18.1826 13.8425 16.743 15.1631 16.743 16.7908C16.743 18.4204 18.1826 19.7391 19.9614 19.7391C21.7382 19.7391 23.1798 18.4204 23.1798 16.7908C23.1798 15.1631 21.7382 13.8425 19.9614 13.8425ZM19.9614 17.7167C19.4031 17.7167 18.9507 17.3023 18.9507 16.7908C18.9507 16.2793 19.4031 15.8658 19.9614 15.8658C20.5198 15.8658 20.9712 16.2803 20.9712 16.7908C20.9712 17.3023 20.5187 17.7167 19.9614 17.7167Z" fill="#BE1622"/>
<path fill-rule="evenodd" clip-rule="evenodd" d="M21.9172 19.2106C21.7218 18.6521 21.0288 18.1999 20.3748 18.1999H19.6108C18.9558 18.1999 18.2669 18.6549 18.0715 19.2106L13.2594 32.9865C13.064 33.546 13.4321 33.9981 14.0964 33.9981H15.0454C15.3724 33.9981 15.7117 33.772 15.8032 33.4847L18.2649 25.774C18.8551 23.9429 19.2571 22.3991 19.8998 20.5896H20.0077C20.6226 22.3981 21.0257 23.9429 21.6149 25.7759L24.1032 33.4876C24.1937 33.7701 24.5309 34 24.8569 34H25.9191C26.5751 34 26.9473 33.545 26.7519 32.9883L21.9141 19.2125L21.9172 19.2106Z" fill="#BE1622"/>
<path fill-rule="evenodd" clip-rule="evenodd" d="M13.5298 10.4459L13.0609 10.7916L17.069 13.3725L17.1615 13.284L15.7323 11.5009L16.4788 11.5414L14.8901 9.86476L15.3014 9.40698L10.3834 6L10.2908 6.08854L12.2034 8.49519L11.5998 8.49331L13.5329 10.4488" fill="#BE1622"/>
<path fill-rule="evenodd" clip-rule="evenodd" d="M13.3211 16.009L13.8804 15.6416L11.3222 14.7355L11.7561 14.1741L6.04421 13.7201L6 13.8425L8.32691 14.6809L8.05648 15.1386L11.1381 15.831L10.6651 16.3754L14.9272 16.9029L14.9858 16.7965L13.3211 16.009Z" fill="#BE1622"/>
<path fill-rule="evenodd" clip-rule="evenodd" d="M26.4691 10.4459L26.938 10.7916L22.9299 13.3725L22.8374 13.284L24.2667 11.5009L23.5202 11.5414L25.1088 9.86476L24.6975 9.40698L29.6145 6L29.7091 6.08854L27.7966 8.49519L28.3992 8.49331L26.4661 10.4488" fill="#BE1622"/>
<path fill-rule="evenodd" clip-rule="evenodd" d="M26.6799 16.009L26.1195 15.6416L28.6778 14.7355L28.2439 14.1741L33.9558 13.7201L34 13.8425L31.6762 14.6809L31.9456 15.1386L28.8649 15.831L29.3379 16.3754L25.0759 16.9029L25.0173 16.7965L26.683 16.009" fill="#BE1622"/>
</g>
<defs>
<clipPath id="clip0_52_3">
<rect width="28" height="28" fill="white" transform="translate(6 6)"/>
</clipPath>
</defs>
</svg>
