<svg width="107" height="40" viewBox="0 0 107 40" fill="none" xmlns="http://www.w3.org/2000/svg">
<g clip-path="url(#clip0_15_760)">
<path d="M55.242 13.2489L60.3327 12.9176C60.4488 13.7554 60.6617 14.3789 61.0101 14.827C61.5715 15.5285 62.3457 15.8792 63.3716 15.8792C64.1265 15.8792 64.7265 15.7038 65.133 15.3336C65.5201 15.0414 65.7524 14.5738 65.7524 14.0867C65.7524 13.6191 65.5394 13.1709 65.1717 12.8787C64.7846 12.528 63.8748 12.1773 62.4425 11.8655C60.1004 11.3395 58.4164 10.6381 57.4293 9.74181C56.4421 8.90401 55.8808 7.67654 55.9195 6.37113C55.9195 5.47488 56.1905 4.57863 56.6937 3.83825C57.2744 3.00045 58.068 2.33801 59.0165 1.96782C60.0423 1.51969 61.4747 1.28589 63.2748 1.28589C65.4814 1.28589 67.1653 1.69505 68.3267 2.53284C69.4881 3.35116 70.1849 4.67605 70.3978 6.48803L65.3652 6.78029C65.2297 6.00094 64.9588 5.43591 64.5136 5.06572C64.0684 4.69553 63.4877 4.52018 62.7328 4.52018C62.1134 4.52018 61.6489 4.65657 61.3392 4.90985C61.0488 5.14366 60.8553 5.49436 60.8746 5.88404C60.8746 6.17629 61.0295 6.44906 61.2618 6.62442C61.5134 6.85822 62.1134 7.07254 63.0619 7.26738C65.4039 7.77395 67.0686 8.28053 68.0944 8.80659C69.1203 9.33265 69.8558 9.97561 70.301 10.7355C70.7656 11.5148 70.9978 12.4111 70.9785 13.3268C70.9785 14.4179 70.6688 15.509 70.0494 16.4247C69.4106 17.3794 68.5203 18.1198 67.475 18.5679C66.3718 19.055 64.9781 19.3083 63.3135 19.3083C60.3714 19.3083 58.339 18.7433 57.197 17.5937C56.055 16.4442 55.3775 15.0024 55.242 13.2489ZM1.21943 19.016V1.59763H10.1425C11.7878 1.59763 13.0653 1.73401 13.9363 2.02627C14.788 2.29904 15.5429 2.86407 16.0461 3.62393C16.6075 4.46173 16.8784 5.43591 16.8591 6.44906C16.9172 8.16363 16.0461 9.80026 14.5557 10.6575C13.975 10.9888 13.3363 11.2226 12.6782 11.3395C13.1621 11.4759 13.646 11.7097 14.0718 11.9824C14.4009 12.2552 14.6719 12.5669 14.9235 12.8982C15.2138 13.2294 15.4655 13.5996 15.6784 13.9893L18.2721 19.0355H12.1943L9.3296 13.6775C8.96183 12.9956 8.65214 12.5475 8.3618 12.3331C7.97468 12.0604 7.51013 11.924 7.04559 11.924H6.58104V18.9966H1.21943V19.016ZM6.58104 8.65072H8.8457C9.3296 8.61175 9.79414 8.53382 10.2587 8.41692C10.6071 8.35847 10.9168 8.16363 11.1297 7.87137C11.6523 7.16996 11.5749 6.17629 10.9361 5.5723C10.5877 5.28004 9.91028 5.12417 8.94248 5.12417H6.58104V8.65072ZM0 33.9405L5.09063 33.6093C5.20677 34.4471 5.41968 35.0706 5.76809 35.5187C6.31006 36.2201 7.10365 36.5903 8.12952 36.5903C8.88441 36.5903 9.48444 36.415 9.89092 36.0448C10.278 35.733 10.5103 35.2849 10.5103 34.7978C10.5103 34.3302 10.2974 33.8821 9.92963 33.5898C9.54251 33.2391 8.63278 32.8884 7.18108 32.5767C4.839 32.0506 3.15503 31.3492 2.16787 30.453C1.18072 29.6152 0.619392 28.3877 0.658104 27.0823C0.658104 26.186 0.929088 25.2898 1.43234 24.5494C2.01302 23.7116 2.80662 23.0492 3.75507 22.679C4.78093 22.2308 6.21328 21.997 8.01339 21.997C10.22 21.997 11.9039 22.4062 13.0653 23.244C14.2267 24.0818 14.9041 25.3872 15.117 27.1992L10.0845 27.4914C9.94899 26.7121 9.678 26.1471 9.23282 25.7769C8.80698 25.4067 8.20695 25.2313 7.45206 25.2508C6.83267 25.2508 6.36813 25.3872 6.05843 25.66C5.74873 25.8938 5.57453 26.2445 5.59389 26.6342C5.59389 26.9264 5.74873 27.1992 5.98101 27.3745C6.23263 27.6083 6.83267 27.8227 7.78112 28.0175C10.1232 28.5241 11.7878 29.0306 12.8137 29.5567C13.8395 30.0828 14.5751 30.7257 15.0203 31.4856C15.4848 32.2649 15.7171 33.1612 15.7171 34.0574C15.7171 35.1485 15.388 36.2201 14.788 37.1359C14.1492 38.0906 13.2589 38.8309 12.2136 39.2791C11.1103 39.7662 9.71672 40.0194 8.0521 40.0194C5.10999 40.0194 3.07761 39.4544 1.9356 38.3049C0.793596 37.1359 0.154848 35.6941 0 33.9405Z" fill="#494E65"/>
<path d="M25.7435 32.5767L30.4276 33.999C30.176 35.1875 29.6534 36.3176 28.9372 37.3112C28.2791 38.188 27.4081 38.8699 26.4209 39.3181C25.4144 39.7662 24.1369 40 22.5884 40C20.7109 40 19.1624 39.7272 17.9817 39.1817C16.7816 38.6361 15.7558 37.662 14.8847 36.2786C14.0137 34.8953 13.5879 33.1223 13.5879 30.9596C13.5879 28.076 14.3428 25.8548 15.8719 24.3156C17.401 22.7764 19.5495 21.9971 22.3368 21.9971C24.524 21.9971 26.2274 22.4452 27.4855 23.322C28.7243 24.2182 29.6534 25.5821 30.2728 27.4135L25.5499 28.4657C25.4338 28.0565 25.2596 27.6473 25.0273 27.2966C24.737 26.8875 24.3692 26.5757 23.924 26.3419C23.4788 26.1081 22.9756 26.0107 22.4723 26.0107C21.2529 26.0107 20.3238 26.4978 19.685 27.4915C19.2011 28.2124 18.9495 29.3619 18.9495 30.9206C18.9495 32.8495 19.2398 34.1744 19.8205 34.8953C20.4012 35.6162 21.2142 35.9669 22.2787 35.9669C23.3046 35.9669 24.0788 35.6746 24.6015 35.1096C25.1241 34.5056 25.5112 33.6678 25.7435 32.5767ZM36.6796 22.2893H42.0219V28.3877H47.8674V22.2893H53.2483V39.7077H47.8674V32.6546H42.0219V39.7077H36.6796V22.2893Z" fill="#494E65"/>
<path d="M52.5128 30.9985C52.5128 28.1539 53.3064 25.9327 54.8743 24.3545C56.4421 22.7764 58.6487 21.9775 61.4553 21.9775C64.3393 21.9775 66.5459 22.7569 68.1138 24.3156C69.6816 25.8743 70.4558 28.0564 70.4558 30.8621C70.4558 32.9079 70.1074 34.564 69.43 35.8694C68.7719 37.1553 67.746 38.2074 66.4879 38.9089C65.191 39.6298 63.5845 39.9999 61.6682 39.9999C59.7133 39.9999 58.1067 39.6882 56.8292 39.0647C55.513 38.4023 54.4291 37.3696 53.7129 36.1032C52.9193 34.7394 52.5128 33.0443 52.5128 30.9985ZM57.8551 31.018C57.8551 32.7715 58.1841 34.0379 58.8229 34.8173C59.4616 35.5771 60.352 35.9668 61.4747 35.9668C62.6167 35.9668 63.507 35.5966 64.1458 34.8368C64.7845 34.0769 65.0942 32.7325 65.0942 30.7842C65.0942 29.1475 64.7652 27.9395 64.1071 27.1992C63.449 26.4393 62.5586 26.0691 61.4359 26.0691C60.4488 26.0301 59.5003 26.4588 58.8422 27.2186C58.1841 27.9785 57.8551 29.245 57.8551 31.018ZM75.9336 30.9985C75.9336 28.1539 76.7272 25.9327 78.295 24.3545C79.8629 22.7764 82.0694 21.9775 84.8761 21.9775C87.7601 21.9775 89.986 22.7569 91.5345 24.3156C93.083 25.8743 93.8766 28.0564 93.8766 30.8621C93.8766 32.9079 93.5282 34.564 92.8507 35.8694C92.1926 37.1553 91.1668 38.2074 89.9086 38.9089C88.6118 39.6298 87.0052 39.9999 85.089 39.9999C83.134 39.9999 81.5275 39.6882 80.25 39.0647C78.9338 38.4023 77.8498 37.3696 77.1337 36.1032C76.3401 34.7394 75.9336 33.0443 75.9336 30.9985ZM81.2758 31.018C81.2758 32.7715 81.6049 34.0379 82.2436 34.8173C82.8824 35.5771 83.7728 35.9668 84.8954 35.9668C86.0374 35.9668 86.9278 35.5966 87.5665 34.8368C88.2053 34.0769 88.515 32.7325 88.515 30.7842C88.515 29.1475 88.1859 27.9395 87.5278 27.1992C86.8697 26.4393 85.9794 26.0691 84.8567 26.0691C83.8695 26.0301 82.9017 26.4588 82.263 27.2186C81.6049 27.9785 81.2758 29.245 81.2758 31.018Z" fill="#494E65"/>
<path d="M93.3153 22.2893H98.6575V35.4213H107V39.7077H93.2959V22.2893H93.3153Z" fill="#494E65"/>
</g>
<defs>
<clipPath id="clip0_15_760">
<rect width="107" height="40" fill="white"/>
</clipPath>
</defs>
</svg>
