<svg width="40" height="40" viewBox="0 0 40 40" fill="none" xmlns="http://www.w3.org/2000/svg">
<rect width="40" height="40" rx="8" fill="#FAEA68"/>
<path d="M20.9476 22.6205L25.1697 22.3265C25.266 23.0703 25.4426 23.6238 25.7315 24.0216C26.1971 24.6443 26.8392 24.9557 27.6901 24.9557C28.3161 24.9557 28.8138 24.8 29.1509 24.4714C29.472 24.2119 29.6646 23.7968 29.6646 23.3643C29.6646 22.9492 29.488 22.5514 29.183 22.2919C28.862 21.9805 28.1074 21.6692 26.9195 21.3924C24.977 20.9254 23.5804 20.3027 22.7616 19.507C21.9429 18.7632 21.4774 17.6735 21.5095 16.5146C21.5095 15.7189 21.7342 14.9232 22.1516 14.2659C22.6332 13.5222 23.2914 12.9341 24.078 12.6054C24.9289 12.2076 26.1168 12 27.6098 12C29.4399 12 30.8365 12.3632 31.7997 13.107C32.763 13.8335 33.3409 15.0097 33.5175 16.6184L29.3436 16.8778C29.2312 16.1859 29.0064 15.6843 28.6372 15.3557C28.268 15.027 27.7864 14.8714 27.1603 14.8714C26.6466 14.8714 26.2613 14.9924 26.0044 15.2173C25.7636 15.4249 25.6031 15.7362 25.6192 16.0822C25.6192 16.3416 25.7476 16.5838 25.9402 16.7395C26.1489 16.947 26.6466 17.1373 27.4332 17.3103C29.3757 17.76 30.7563 18.2097 31.6071 18.6768C32.4579 19.1438 33.068 19.7146 33.4372 20.3892C33.8225 21.0811 34.0151 21.8768 33.9991 22.6897C33.9991 23.6584 33.7422 24.627 33.2285 25.44C32.6987 26.2876 31.9603 26.9449 31.0934 27.3427C30.1783 27.7751 29.0225 28 27.6419 28C25.2018 28 23.5161 27.4984 22.569 26.4778C21.6218 25.4573 21.06 24.1773 20.9476 22.6205ZM6 27.7405V12.2768H13.4007C14.7652 12.2768 15.8247 12.3978 16.5471 12.6573C17.2535 12.8995 17.8796 13.4011 18.297 14.0757C18.7625 14.8195 18.9873 15.6843 18.9712 16.5838C19.0194 18.1059 18.297 19.5589 17.0608 20.32C16.5792 20.6141 16.0495 20.8216 15.5037 20.9254C15.905 21.0465 16.3063 21.2541 16.6595 21.4962C16.9324 21.7384 17.1572 22.0151 17.3659 22.3092C17.6067 22.6032 17.8154 22.9319 17.9919 23.2778L20.1431 27.7578H15.1023L12.7264 23.0011C12.4214 22.3957 12.1645 21.9978 11.9237 21.8076C11.6027 21.5654 11.2174 21.4443 10.8321 21.4443H10.4468V27.7232H6V27.7405ZM10.4468 18.5384H12.3251C12.7264 18.5038 13.1117 18.4346 13.497 18.3308C13.7859 18.2789 14.0428 18.1059 14.2194 17.8465C14.6528 17.2238 14.5886 16.3416 14.0588 15.8054C13.7699 15.5459 13.208 15.4076 12.4053 15.4076H10.4468V18.5384Z" fill="#1A1A1A"/>
</svg>
