<svg width="40" height="40" viewBox="0 0 40 40" fill="none" xmlns="http://www.w3.org/2000/svg">
<rect width="40" height="40" rx="8" fill="#635A52"/>
<path fill-rule="evenodd" clip-rule="evenodd" d="M33.5294 21.6774C33.4341 21.5956 33.321 21.5399 33.2002 21.5152C32.4895 22.2578 31.6223 23.0399 30.8523 23.5658C30.497 23.8133 30.05 23.9368 29.7542 23.9368C29.0731 23.9368 28.7772 23.256 28.6883 22.1736C28.5697 20.7202 28.49 18.979 28.49 16.288C28.49 13.528 27.8924 11.652 26.3009 11.5049C26.2336 11.4988 26.1656 11.4943 26.0948 11.4943C25.1177 11.4943 24.6438 12.0202 24.022 13.35C23.4892 14.4942 22.6601 16.1643 21.1209 19.319C19.7886 22.0411 18.3083 24.4538 17.0347 26.1236C16.68 26.5864 16.3998 26.9043 16.1363 27.0858C15.9603 27.2073 15.7914 27.268 15.6137 27.268C15.111 27.268 14.7445 26.8236 14.622 25.7881C14.5928 25.5421 14.5773 25.2628 14.5773 24.9483C14.5773 22.814 15.3473 19.3504 16.6773 14.247C17.6543 10.5358 17.24 8 15.1081 8H15.0842L15.0828 8.00041C14.6 8.00652 14.2 8.18957 13.8143 8.50798C13.4347 8.82128 13.0548 9.49804 12.7001 10.4082C12.3025 11.4323 9.87132 16.5441 6.00265 19.1775C5.95715 20.1788 6.49771 21.1792 7.59321 21.2879C8.59071 21.3869 9.29848 20.9462 10.2104 20.3043C10.0882 20.8758 9.96776 21.4476 9.84915 22.0199L9.72237 22.6285C9.60211 23.2021 9.51015 23.7818 9.44685 24.3653C8.90104 29.4772 11.1611 32 13.8078 32C14.2502 32 14.6887 31.945 15.1237 31.8288C18.0399 31.0534 20.8477 27.5467 24.1704 19.4739C24.1198 20.352 24.1148 21.1719 24.1509 21.9332C24.3697 26.5599 26.1154 27.948 28.5817 27.948C30.447 27.948 32.1937 26.9276 33.082 25.6595C33.7333 24.7626 33.9997 23.7727 33.9997 22.9993C33.9997 22.3992 33.8181 21.92 33.5292 21.6768" fill="#EA5252"/>
</svg>
