<svg width="40" height="40" viewBox="0 0 40 40" fill="none" xmlns="http://www.w3.org/2000/svg">
<rect width="40" height="40" rx="8" fill="white"/>
<g clip-path="url(#clip0_52_5)">
<mask id="mask0_52_5" style="mask-type:luminance" maskUnits="userSpaceOnUse" x="5" y="6" width="30" height="28">
<path d="M34.0225 6H5.97205V33.9962H34.0225V6Z" fill="white"/>
</mask>
<g mask="url(#mask0_52_5)">
<path d="M29.5993 11.8921C29.5993 11.8921 30.3048 12.6955 31.2902 12.6955C32.0685 12.6955 32.634 12.1956 32.634 11.5112C32.634 10.672 31.9116 10.2851 31.0382 10.2851H30.5231L30.2152 9.54713L31.5814 7.82714C31.8725 7.45814 32.1188 7.22603 32.1188 7.22603C32.1188 7.22603 31.9005 7.23793 31.4582 7.23793H29.2354V6H33.7873V6.90464L31.9621 9.14838C32.9923 9.30312 34 10.0828 34 11.4576C34 12.8086 33.0371 14.0584 31.3742 14.0584C29.7897 14.0584 28.9107 12.999 28.9107 12.999L29.5993 11.8921Z" fill="#04AA6D"/>
<path d="M20.7195 13.5645L26.7327 24.9439L29.7 19.3197L24.0228 8.57712H17.4161L14.6782 13.7609L11.9404 8.57712H6L14.6447 24.9439L14.6782 24.8844L14.7119 24.9439L20.7195 13.5645Z" fill="#04AA6D"/>
<path d="M6.06158 32.6569H6.94061C6.94061 32.9307 7.16456 33.1926 7.56209 33.1926C7.93161 33.1926 8.17796 32.9962 8.17796 32.7343C8.17796 32.5082 8.01559 32.407 7.73565 32.3415L7.23175 32.2046C6.38072 31.9665 6.16236 31.4845 6.16236 30.9727C6.16236 30.3477 6.74465 29.7764 7.56769 29.7764C8.23955 29.7764 9.001 30.1394 8.9898 31.0322H8.09958C8.09958 30.7584 7.86442 30.5858 7.59568 30.5858C7.30453 30.5858 7.10298 30.7643 7.10298 31.0143C7.10298 31.2227 7.28774 31.3417 7.5061 31.3952L8.11077 31.5678C8.9618 31.7999 9.11298 32.3653 9.11298 32.7343C9.11298 33.5497 8.34593 33.996 7.57888 33.996C6.83423 33.996 6.07838 33.5139 6.06158 32.6569Z" fill="#04AA6D"/>
<path d="M9.8913 31.8832C9.8913 30.6096 10.8543 29.7764 11.9461 29.7764C12.6012 29.7764 13.1331 30.0858 13.4802 30.5501L12.8195 31.1095C12.6236 30.8596 12.3044 30.7048 11.9629 30.7048C11.3078 30.7048 10.8375 31.2047 10.8375 31.8832C10.8375 32.5557 11.3078 33.0676 11.9629 33.0676C12.3044 33.0676 12.6236 32.9129 12.8195 32.6629L13.4802 33.2224C13.1331 33.6866 12.6012 33.996 11.9461 33.996C10.8543 33.996 9.8913 33.1569 9.8913 31.8832Z" fill="#04AA6D"/>
<path d="M18.004 31.6393V33.889H17.0634V31.7107C17.0634 31.068 16.6995 30.7228 16.2796 30.7228C15.8484 30.7228 15.3166 30.9906 15.3166 31.7703V33.895H14.376V27.6935H15.3222V30.4848C15.507 29.9967 16.1172 29.7705 16.4924 29.7705C17.4665 29.7764 18.004 30.4728 18.004 31.6393Z" fill="#04AA6D"/>
<path d="M18.9894 31.8832C18.9894 30.6096 19.9188 29.7764 20.9937 29.7764C22.0687 29.7764 23.0093 30.6096 23.0093 31.8832C23.0093 33.1569 22.0687 33.996 20.9937 33.996C19.9188 33.996 18.9894 33.1569 18.9894 31.8832ZM22.0632 31.8832C22.0632 31.1929 21.576 30.7048 20.9937 30.7048C20.4114 30.7048 19.9356 31.1929 19.9356 31.8832C19.9356 32.5855 20.4114 33.0676 20.9937 33.0676C21.576 33.0676 22.0632 32.5855 22.0632 31.8832Z" fill="#04AA6D"/>
<path d="M23.8101 31.8832C23.8101 30.6096 24.7395 29.7764 25.8145 29.7764C26.8894 29.7764 27.83 30.6096 27.83 31.8832C27.83 33.1569 26.8894 33.996 25.8145 33.996C24.745 33.996 23.8101 33.1569 23.8101 31.8832ZM26.8838 31.8832C26.8838 31.1929 26.3967 30.7048 25.8145 30.7048C25.2321 30.7048 24.7562 31.1929 24.7562 31.8832C24.7562 32.5855 25.2321 33.0676 25.8145 33.0676C26.4023 33.0676 26.8838 32.5855 26.8838 31.8832Z" fill="#04AA6D"/>
<path d="M28.8714 33.895V27.6935H29.812V33.895H28.8714Z" fill="#04AA6D"/>
<path d="M30.8367 32.6569H31.7157C31.7157 32.9307 31.9397 33.1926 32.3371 33.1926C32.7067 33.1926 32.953 32.9962 32.953 32.7343C32.953 32.5082 32.7907 32.407 32.5107 32.3415L32.0069 32.2046C31.1558 31.9665 30.9374 31.4845 30.9374 30.9727C30.9374 30.3477 31.5197 29.7764 32.3428 29.7764C33.0146 29.7764 33.776 30.1394 33.7649 31.0322H32.8691C32.8691 30.7584 32.6339 30.5858 32.3651 30.5858C32.074 30.5858 31.8725 30.7643 31.8725 31.0143C31.8725 31.2227 32.0572 31.3417 32.2756 31.3952L32.8803 31.5678C33.7313 31.7999 33.8824 32.3653 33.8824 32.7343C33.8824 33.5497 33.1154 33.996 32.3483 33.996C31.6037 33.996 30.8535 33.5139 30.8367 32.6569Z" fill="#04AA6D"/>
</g>
</g>
<defs>
<clipPath id="clip0_52_5">
<rect width="28" height="28" fill="white" transform="translate(6 6)"/>
</clipPath>
</defs>
</svg>
